<?xml version="1.0" encoding="UTF-8"?>
<svg id="b" data-name="Layer 2" xmlns="http://www.w3.org/2000/svg" width="377.159" height="361.609" viewBox="0 0 377.159 361.609">
  <g id="c" data-name="Layer 1">
    <g>
      <path d="m132.46,361.609c12.869,0,12.89-20,0-20s-12.89,20,0,20h0Z" stroke-width="0"/>
      <path d="m20,351.195V10.149L2.929,17.22c21.239,21.239,42.477,42.477,63.716,63.716,33.685,33.685,67.37,67.37,101.056,101.056,7.716,7.716,15.433,15.433,23.149,23.149,6.124,6.124,17.071,1.597,17.071-7.071v-87.19c0-12.869-20-12.89-20,0v87.19c5.69-2.357,11.381-4.714,17.071-7.071-21.239-21.239-42.477-42.477-63.716-63.716L40.22,26.227,17.071,3.078C10.947-3.046,0,1.481,0,10.149v341.045c0,12.869,20,12.89,20,0h0Z" stroke-width="0"/>
      <path d="m225.5,262.879v88.315c0,5.406,4.582,10,10,10h131.659c5.406,0,10-4.582,10-10V10.149c0-5.406-4.582-10-10-10-21.309,0-42.644-.336-63.95,0-3.801.06-7,1.116-9.819,3.797-2.786,2.65-5.447,5.447-8.166,8.166l-28.98,28.98c-6.883,6.883-13.767,13.767-20.65,20.65-9.113,9.113,5.025,23.259,14.142,14.142,19.555-19.555,39.11-39.11,58.665-58.665l-7.071,2.929h65.83l-10-10v341.045l10-10h-131.659l10,10v-88.315c0-12.869-20-12.89-20,0h0Z" stroke-width="0"/>
      <path d="m63.429,156.993c17.931,17.931,35.862,35.862,53.793,53.793l7.707,7.707c9.113,9.113,23.259-5.025,14.142-14.142-17.931-17.931-35.862-35.862-53.793-53.793l-7.707-7.707c-9.113-9.113-23.259,5.025-14.142,14.142h0Z" stroke-width="0"/>
    </g>
  </g>
</svg>